<svg width="170" height="59" viewBox="0 0 170 59" fill="none" xmlns="http://www.w3.org/2000/svg">
<path d="M138.102 20.5999L138.202 20.5087L138.102 20.5999ZM137.204 22.1899L137.18 22.3159L137.204 22.1899ZM137.611 21.1894L137.541 21.2983L137.611 21.1894ZM137.886 20.8201L137.791 20.9344L137.886 20.8201ZM169.222 3.47611C169.22 3.09366 169.021 2.7831 168.743 2.61698V2.61619L164.473 0.139142L164.452 0.126805L164.436 0.117525V0.119826C164.163 -0.0323814 163.82 -0.0517031 163.513 0.132955L134.278 17.7643C133.748 18.0842 133.342 18.5694 133.101 19.135C132.94 19.5135 132.849 19.9269 132.85 20.3557L132.881 31.7079L122.764 42.6359C121.856 43.6179 121.759 45.096 122.464 45.3286L126.499 47.6511C126.628 47.7956 126.81 47.872 127.052 47.8419L132.924 47.094L132.946 55.4291C132.947 55.8054 133.14 56.1106 133.411 56.279L133.41 56.2798L133.416 56.2829L133.433 56.2921L137.678 58.7537L137.74 58.7893L137.786 58.8101C138.05 58.9361 138.367 58.9461 138.654 58.773L167.889 41.1417C168.775 40.6078 169.32 39.6188 169.317 38.5503L169.222 3.47611" fill="#AD58B2"/>
<path d="M159.166 14.4574C159.052 14.5262 158.939 14.6104 158.829 14.7379C158.75 14.8299 158.697 14.938 158.659 15.0547C158.322 15.7361 158.076 16.4315 157.843 17.1284C157.599 17.7535 157.37 18.3809 157.165 19.0106C157.111 19.1272 157.06 19.2477 157.037 19.3675C156.967 19.5236 156.91 19.682 156.873 19.8411C156.742 20.1919 156.611 20.5427 156.479 20.8942C156.432 20.9946 156.387 21.0936 156.342 21.194C156.211 21.4953 156.1 21.7974 156.019 22.1041C155.922 22.4727 155.944 22.7454 156.105 22.9262C156.412 23.2778 156.826 23.43 157.243 23.5791L157.358 23.6169C157.473 23.654 157.593 23.6826 157.711 23.7166C157.916 23.8225 158.12 23.9252 158.323 24.0303L158.441 24.1137L158.563 24.2613C158.613 24.3363 158.638 24.3842 158.655 24.4398C158.68 24.5217 158.685 24.6237 158.662 24.7573C158.628 24.9142 158.592 25.0741 158.558 25.231C158.469 25.4929 158.377 25.7571 158.286 26.0198C158.242 26.1342 158.199 26.2477 158.155 26.3613C158.016 26.7299 157.876 27.1007 157.735 27.4708C157.58 27.8324 157.466 28.1368 157.353 28.4412C157.25 28.6568 157.148 28.8762 157.071 29.101C157.02 29.2115 156.97 29.3236 156.919 29.4348C156.791 29.7145 156.663 29.995 156.536 30.2739C156.497 30.3566 156.458 30.44 156.42 30.5219C156.284 30.7931 156.148 31.0628 156.012 31.3347C155.96 31.4383 155.907 31.5418 155.855 31.6453C155.694 31.9389 155.534 32.2325 155.373 32.5261C155.332 32.6003 155.289 32.6752 155.247 32.7486C155.07 33.0492 154.892 33.3505 154.716 33.6518C154.667 33.7291 154.618 33.8064 154.568 33.8821C154.197 34.4461 153.827 35.0093 153.455 35.5733C153.308 35.782 153.162 35.9898 153.016 36.1984L152.891 36.3692C152.409 37.0066 151.971 37.5837 151.533 38.1616C151.381 38.3363 151.229 38.507 151.077 38.6839C150.956 38.8253 150.84 38.9273 150.729 38.9945C150.529 39.1151 150.346 39.1197 150.174 39.0254C150.063 38.9644 149.952 38.9026 149.839 38.8423L149.761 38.7759C149.279 38.3679 148.796 37.9592 148.254 37.651C148.068 37.5451 147.862 37.481 147.599 37.6401L147.428 37.7684C147.22 37.96 147.024 38.174 146.856 38.4421C146.801 38.4777 146.764 38.5364 146.738 38.609C146.329 39.2024 145.879 39.7363 145.454 40.3034C145.06 40.7708 144.674 41.2522 144.299 41.752C144.084 42.0047 143.877 42.2666 143.682 42.5486C143.448 42.8306 143.226 43.1242 143.016 43.4387C142.931 43.5438 142.848 43.6488 142.785 43.7771C142.505 44.1178 142.496 44.423 142.521 44.7274C142.507 44.9538 142.545 45.1416 142.568 45.3417C142.601 45.6028 142.633 45.8632 142.724 46.0733C142.749 46.2526 142.796 46.4102 142.86 46.5501L142.928 46.6845L142.952 46.7919L143.038 46.9186C143.079 47.0469 143.155 47.1264 143.252 47.1751C143.321 47.2802 143.412 47.3474 143.514 47.3976L143.702 47.4772C143.771 47.4965 143.801 47.5027 143.83 47.512L143.982 47.573L144.059 47.5947C144.139 47.6124 144.224 47.6186 144.315 47.6101L144.437 47.6271C144.54 47.6472 144.644 47.6673 144.766 47.6317C144.874 47.6588 144.996 47.6441 145.121 47.6217C145.236 47.6279 145.353 47.624 145.479 47.59C145.586 47.5738 145.639 47.5699 145.693 47.563C145.854 47.546 146.02 47.5066 146.19 47.4502L146.266 47.4363C146.355 47.4169 146.4 47.4092 146.448 47.393L146.568 47.3397C146.706 47.2926 146.733 47.281 146.759 47.2702C146.936 47.2091 147.114 47.1396 147.293 47.0515L147.446 46.9727L147.559 46.9078C147.66 46.846 147.762 46.778 147.864 46.7007C148.081 46.5601 148.148 46.5153 148.216 46.4658C148.343 46.3739 148.468 46.2719 148.594 46.1583C148.708 46.0811 148.821 46.0007 148.932 45.9072L149.063 45.7867L149.128 45.7218L149.314 45.5565C149.5 45.388 149.683 45.2119 149.86 45.011C150.001 44.8982 150.133 44.7568 150.262 44.6069L150.372 44.4779C150.654 44.2175 150.872 43.9811 151.085 43.7315C151.278 43.5546 151.464 43.356 151.646 43.1474C151.789 43.0091 151.932 42.8731 152.061 42.7008C152.136 42.6182 152.21 42.5355 152.286 42.452C152.352 42.4049 152.408 42.3338 152.458 42.2542L152.537 42.16L152.665 42.0325C152.733 41.9583 152.799 41.8772 152.861 41.7891C152.992 41.6508 153.117 41.5033 153.237 41.348L153.356 41.1903L153.475 41.0428C153.701 40.7669 153.926 40.4958 154.131 40.1882C154.238 40.0816 154.328 39.9511 154.411 39.8112C154.553 39.6582 154.669 39.4728 154.789 39.2912C154.98 39.0564 155.149 38.7991 155.314 38.5379C155.416 38.3958 155.463 38.3293 155.51 38.2629L155.648 38.0627C155.74 37.9275 155.826 37.7877 155.91 37.6432C155.966 37.5644 156.026 37.484 156.08 37.4021C156.135 37.3195 156.187 37.2337 156.232 37.1426C156.341 37.0004 156.44 36.8505 156.519 36.6828C156.663 36.4889 156.786 36.2764 156.902 36.0609L157.025 35.8801L157.077 35.7843L157.127 35.6846L157.249 35.4976C157.37 35.3068 157.48 35.109 157.584 34.9066C157.651 34.7899 157.693 34.7211 157.733 34.6516C157.889 34.3704 158.044 34.0907 158.202 33.8079C158.263 33.726 158.313 33.6348 158.352 33.5359C158.473 33.3358 158.586 33.1318 158.692 32.9217C158.728 32.8529 158.761 32.7826 158.794 32.7123C158.885 32.5678 158.92 32.4898 158.954 32.411C159.085 32.156 159.218 31.8995 159.35 31.6438C159.421 31.4985 159.491 31.3556 159.561 31.2126C159.668 31.0133 159.777 30.8155 159.851 30.6046C160.169 29.9927 160.445 29.3699 160.703 28.7402C160.742 28.6452 160.782 28.5502 160.822 28.4559C160.935 28.228 161.032 27.9962 161.107 27.7621C161.413 27.0428 161.686 26.3196 161.913 25.5926L161.98 25.4102C162.135 24.9822 162.266 24.5557 162.367 24.1315C162.537 23.6069 162.667 23.0877 162.794 22.5685C162.835 22.3946 162.878 22.2231 162.92 22.0493L162.964 21.8754L163 21.7572C163.018 21.6792 163.038 21.6019 163.057 21.5247C163.245 20.8741 163.39 20.2321 163.485 19.6039L163.493 19.505L163.521 19.3374L163.534 19.2354L163.558 19.0554L163.572 18.8684C163.621 18.581 163.648 18.3028 163.64 18.0417C163.638 17.9273 163.638 17.8137 163.638 17.6986C163.639 17.6144 163.647 17.524 163.618 17.4607L163.605 17.3278C163.599 17.0635 163.558 16.8263 163.485 16.6139C163.424 16.2445 163.318 15.9185 163.175 15.628C162.968 15.1041 162.732 14.6151 162.381 14.2666C162.274 14.1275 162.16 14.0024 162.002 13.946L161.92 13.8919C161.802 13.7922 161.654 13.7536 161.49 13.7528C161.072 13.6956 160.603 13.8363 160.13 13.9993L159.973 14.0642C159.817 14.1167 159.705 14.1515 159.59 14.2218L159.517 14.2697C159.4 14.3338 159.282 14.3871 159.166 14.4574Z" fill="white"/>
<path d="M137.678 58.7538L133.432 56.2922L133.416 56.2829L133.41 56.2798L133.411 56.2791C133.14 56.1106 132.946 55.8054 132.946 55.4292L132.924 47.0941L137.195 46.5501L137.226 57.9147C137.227 58.2848 137.415 58.5838 137.678 58.7538" fill="#A34DAC"/>
<path d="M163.513 0.132935C163.517 0.130617 163.521 0.129103 163.524 0.126785C163.521 0.129103 163.517 0.130617 163.513 0.132935ZM164.422 0.112864C164.417 0.109774 164.412 0.106694 164.406 0.104376C164.412 0.106694 164.417 0.109774 164.422 0.112864ZM164.402 0.101283C164.274 0.0363819 164.131 6.3892e-05 163.985 6.3892e-05C164.131 6.3892e-05 164.274 0.0363819 164.402 0.101283ZM163.981 6.3892e-05C163.981 6.3892e-05 163.982 6.3892e-05 163.983 6.3892e-05C163.982 6.3892e-05 163.981 6.3892e-05 163.981 6.3892e-05Z" fill="white"/>
<path d="M137.347 21.6954L133.101 19.1349C133.342 18.5694 133.748 18.0842 134.278 17.7643L163.513 0.132938C163.517 0.13062 163.521 0.129106 163.523 0.126788C163.672 0.0394814 163.828 6.6841e-05 163.981 6.6841e-05C163.981 6.6841e-05 163.982 6.6841e-05 163.983 6.6841e-05C163.984 6.6841e-05 163.984 6.6841e-05 163.985 6.6841e-05C164.131 6.6841e-05 164.274 0.0363848 164.401 0.101285C164.403 0.102831 164.404 0.103606 164.406 0.104379C164.412 0.106697 164.417 0.109777 164.422 0.112867C164.427 0.115185 164.431 0.117491 164.436 0.119809V0.117508L164.452 0.126788L164.472 0.139125L168.743 2.61617V2.61696C168.599 2.5312 168.436 2.48405 168.268 2.48405C168.109 2.48405 167.947 2.52579 167.794 2.61851L138.559 20.2491C138.004 20.5844 137.583 21.0966 137.347 21.6954" fill="#C171BF"/>
<path d="M137.162 34.1935L132.881 31.7079L132.85 20.3557C132.85 20.3519 132.85 20.3488 132.85 20.3457C132.85 19.9207 132.941 19.5105 133.101 19.135L137.347 21.6955C137.205 22.0524 137.13 22.4418 137.131 22.8405L137.162 34.1935Z" fill="#B764B9"/>
<path d="M126.499 47.651L122.464 45.3285C122.154 45.2265 122 44.8835 122 44.4485C122.001 43.8929 122.255 43.1868 122.764 42.6359L132.881 31.7078L137.162 34.1934L127.045 45.1214C126.262 45.9682 126.082 47.1828 126.499 47.651" fill="#B35EB6"/>
<path d="M4.888 23.464V30.614H14.3V32.278H4.888V40H2.964V21.8H15.444V23.464H4.888ZM23.2525 26.22C25.0379 26.22 26.4072 26.6707 27.3605 27.572C28.3139 28.456 28.7905 29.7733 28.7905 31.524V40H27.0225V37.868C26.6065 38.5787 25.9912 39.1333 25.1765 39.532C24.3792 39.9307 23.4259 40.13 22.3165 40.13C20.7912 40.13 19.5779 39.766 18.6765 39.038C17.7752 38.31 17.3245 37.348 17.3245 36.152C17.3245 34.9907 17.7405 34.0547 18.5725 33.344C19.4219 32.6333 20.7652 32.278 22.6025 32.278H26.9445V31.446C26.9445 30.2673 26.6152 29.3747 25.9565 28.768C25.2979 28.144 24.3359 27.832 23.0705 27.832C22.2039 27.832 21.3719 27.9793 20.5745 28.274C19.7772 28.5513 19.0925 28.9413 18.5205 29.444L17.6885 28.066C18.3819 27.4767 19.2139 27.026 20.1845 26.714C21.1552 26.3847 22.1779 26.22 23.2525 26.22ZM22.6025 38.674C23.6425 38.674 24.5352 38.44 25.2805 37.972C26.0259 37.4867 26.5805 36.7933 26.9445 35.892V33.656H22.6545C20.3145 33.656 19.1445 34.4707 19.1445 36.1C19.1445 36.8973 19.4479 37.53 20.0545 37.998C20.6612 38.4487 21.5105 38.674 22.6025 38.674ZM33.8045 20.708H35.6505V40H33.8045V20.708ZM52.6949 33.734H41.2549C41.3589 35.1553 41.9049 36.308 42.8929 37.192C43.8809 38.0587 45.1289 38.492 46.6369 38.492C47.4862 38.492 48.2662 38.3447 48.9769 38.05C49.6876 37.738 50.3029 37.2873 50.8229 36.698L51.8629 37.894C51.2562 38.622 50.4936 39.1767 49.5749 39.558C48.6736 39.9393 47.6769 40.13 46.5849 40.13C45.1809 40.13 43.9329 39.8353 42.8409 39.246C41.7662 38.6393 40.9256 37.8073 40.3189 36.75C39.7122 35.6927 39.4089 34.4967 39.4089 33.162C39.4089 31.8273 39.6949 30.6313 40.2669 29.574C40.8562 28.5167 41.6536 27.6933 42.6589 27.104C43.6816 26.5147 44.8256 26.22 46.0909 26.22C47.3562 26.22 48.4916 26.5147 49.4969 27.104C50.5022 27.6933 51.2909 28.5167 51.8629 29.574C52.4349 30.614 52.7209 31.81 52.7209 33.162L52.6949 33.734ZM46.0909 27.806C44.7736 27.806 43.6642 28.2307 42.7629 29.08C41.8789 29.912 41.3762 31.004 41.2549 32.356H50.9529C50.8316 31.004 50.3202 29.912 49.4189 29.08C48.5349 28.2307 47.4256 27.806 46.0909 27.806ZM75.7703 21.8V40H73.9243V25.44L66.7743 37.686H65.8643L58.7143 25.518V40H56.8683V21.8H58.4543L66.3583 35.294L74.1843 21.8H75.7703ZM86.0943 26.22C87.8797 26.22 89.249 26.6707 90.2023 27.572C91.1557 28.456 91.6323 29.7733 91.6323 31.524V40H89.8643V37.868C89.4483 38.5787 88.833 39.1333 88.0183 39.532C87.221 39.9307 86.2677 40.13 85.1583 40.13C83.633 40.13 82.4197 39.766 81.5183 39.038C80.617 38.31 80.1663 37.348 80.1663 36.152C80.1663 34.9907 80.5823 34.0547 81.4143 33.344C82.2637 32.6333 83.607 32.278 85.4443 32.278H89.7863V31.446C89.7863 30.2673 89.457 29.3747 88.7983 28.768C88.1397 28.144 87.1777 27.832 85.9123 27.832C85.0457 27.832 84.2137 27.9793 83.4163 28.274C82.619 28.5513 81.9343 28.9413 81.3623 29.444L80.5303 28.066C81.2237 27.4767 82.0557 27.026 83.0263 26.714C83.997 26.3847 85.0197 26.22 86.0943 26.22ZM85.4443 38.674C86.4843 38.674 87.377 38.44 88.1223 37.972C88.8677 37.4867 89.4223 36.7933 89.7863 35.892V33.656H85.4963C83.1563 33.656 81.9863 34.4707 81.9863 36.1C81.9863 36.8973 82.2897 37.53 82.8963 37.998C83.503 38.4487 84.3523 38.674 85.4443 38.674ZM96.6463 26.324H98.4923V40H96.6463V26.324ZM97.5823 23.334C97.2009 23.334 96.8803 23.204 96.6203 22.944C96.3603 22.684 96.2303 22.372 96.2303 22.008C96.2303 21.6613 96.3603 21.358 96.6203 21.098C96.8803 20.838 97.2009 20.708 97.5823 20.708C97.9636 20.708 98.2843 20.838 98.5443 21.098C98.8043 21.3407 98.9343 21.6353 98.9343 21.982C98.9343 22.3633 98.8043 22.684 98.5443 22.944C98.2843 23.204 97.9636 23.334 97.5823 23.334ZM107.295 40.13C106.185 40.13 105.119 39.974 104.097 39.662C103.091 39.3327 102.303 38.9253 101.731 38.44L102.563 36.984C103.135 37.4347 103.854 37.8073 104.721 38.102C105.587 38.3793 106.489 38.518 107.425 38.518C108.673 38.518 109.591 38.3273 110.181 37.946C110.787 37.5473 111.091 36.9927 111.091 36.282C111.091 35.7793 110.926 35.3893 110.597 35.112C110.267 34.8173 109.851 34.6007 109.349 34.462C108.846 34.306 108.179 34.1587 107.347 34.02C106.237 33.812 105.345 33.604 104.669 33.396C103.993 33.1707 103.412 32.798 102.927 32.278C102.459 31.758 102.225 31.0387 102.225 30.12C102.225 28.976 102.701 28.04 103.655 27.312C104.608 26.584 105.934 26.22 107.633 26.22C108.517 26.22 109.401 26.3413 110.285 26.584C111.169 26.8093 111.897 27.1127 112.469 27.494L111.663 28.976C110.536 28.196 109.193 27.806 107.633 27.806C106.454 27.806 105.561 28.014 104.955 28.43C104.365 28.846 104.071 29.392 104.071 30.068C104.071 30.588 104.235 31.004 104.565 31.316C104.911 31.628 105.336 31.862 105.839 32.018C106.341 32.1567 107.035 32.304 107.919 32.46C109.011 32.668 109.886 32.876 110.545 33.084C111.203 33.292 111.767 33.6473 112.235 34.15C112.703 34.6527 112.937 35.346 112.937 36.23C112.937 37.426 112.434 38.3793 111.429 39.09C110.441 39.7833 109.063 40.13 107.295 40.13Z" fill="black"/>
</svg>
