<svg width="324" height="361" viewBox="0 0 324 361" fill="none" xmlns="http://www.w3.org/2000/svg">
<g clip-path="url(#clip0)">
<path d="M276.178 183.754C339.647 224.301 339.982 290.041 276.925 330.589C213.868 371.137 111.296 371.137 47.8263 330.59C-15.6485 290.04 -15.9827 224.3 47.0742 183.752C110.131 143.205 212.702 143.204 276.178 183.754Z" fill="#EDEDEB"/>
<path d="M68.5972 5.90717C65.1595 8.14848 62.1915 12.6601 60.7663 17.337C59.9789 17.4175 59.116 17.7421 58.2088 18.3331C58.0268 18.4518 57.8436 18.5814 57.6581 18.7208C54.7612 20.9123 52.3336 25.3111 51.7679 29.3861C51.5927 30.6479 51.6068 31.7545 51.763 32.6991C51.792 32.8776 51.6803 33.1358 51.5247 33.237L47.9834 35.5456C46.4356 36.5542 45.1862 38.9988 45.1911 41.0069C45.1963 43.0149 46.454 43.8243 48.0018 42.8157L82.6445 20.23C84.1919 19.2214 85.4416 16.7767 85.4365 14.7686C85.4314 12.7606 84.1736 11.9512 82.6261 12.9607L76.9531 16.6588C76.7796 16.7717 76.6605 16.6215 76.726 16.3733C77.245 14.4059 77.4817 12.431 77.3538 10.6056C76.9818 5.31282 73.5087 3.13127 69.2421 5.51619C69.0256 5.63739 68.8108 5.76771 68.5972 5.90717" fill="#E2E2E0"/>
<path d="M41.5191 0.930613C39.1466 2.47712 37.0977 5.59169 36.1142 8.81917C35.5706 8.87479 34.9748 9.09892 34.3487 9.50734C34.2235 9.58869 34.0966 9.67836 33.9691 9.77465C31.9693 11.2871 30.2938 14.3236 29.9032 17.1361C29.7823 18.0069 29.7918 18.7706 29.8995 19.4231C29.9196 19.5459 29.8429 19.7236 29.7352 19.7933L27.2909 21.3871C26.223 22.0836 25.3603 23.7704 25.3638 25.1566C25.3669 26.5429 26.2353 27.1016 27.3036 26.4051L51.2148 10.8164C52.283 10.12 53.1456 8.43316 53.1419 7.04687C53.1387 5.66058 52.2703 5.10191 51.2021 5.79837L47.2867 8.35097C47.1666 8.429 47.0845 8.32527 47.1299 8.15427C47.4877 6.7962 47.6514 5.43316 47.5632 4.17304C47.3065 0.519712 44.9093 -0.985289 41.9642 0.660826C41.8146 0.744668 41.6667 0.83432 41.5191 0.930613" fill="#E2E2E0"/>
<path d="M57.0734 277.087L67.2701 283.978C68.8515 285.047 70.8051 285.046 72.3868 283.977L155.285 227.926C156.411 227.166 156.411 225.276 155.285 224.515L145.088 217.624C143.507 216.555 141.554 216.556 139.972 217.625L57.0734 273.675C55.9478 274.436 55.948 276.327 57.0734 277.087Z" fill="#DADBD8"/>
<path d="M250.039 260.225C267.169 271.393 267.259 289.5 250.242 300.667C233.223 311.835 205.541 311.835 188.412 300.667C171.281 289.499 171.19 271.393 188.209 260.224C205.226 249.057 232.909 249.057 250.039 260.225Z" fill="#DADBD8"/>
<path d="M46.7185 215.992C44.8263 213.948 42.6611 211.717 42.5279 208.764C42.4091 206.133 44.1174 203.665 46.2929 202.714C48.4681 201.763 50.9741 202.156 53.077 203.297C55.1796 204.436 56.9315 206.26 58.5075 208.203C67.7218 219.559 71.6682 236.086 68.7587 251.134C68.5664 252.129 68.2708 253.231 67.474 253.708C66.2093 254.465 64.7698 253.135 63.906 251.847C62.0229 249.037 60.5997 245.838 59.7078 242.462C58.9526 239.606 59.2926 236.446 58.3389 233.749C56.0017 227.138 51.2168 220.85 46.7185 215.992" fill="#AD58B2"/>
<path d="M46.7185 215.992C44.8263 213.948 42.6611 211.717 42.5279 208.764C42.4091 206.133 44.1174 203.665 46.2929 202.714C48.4681 201.763 50.9741 202.156 53.077 203.297C55.1796 204.436 56.9315 206.26 58.5075 208.203C67.7218 219.559 71.6682 236.086 68.7587 251.134C68.5664 252.129 68.2708 253.231 67.474 253.708C66.2093 254.465 64.7698 253.135 63.906 251.847C62.0229 249.037 60.5997 245.838 59.7078 242.462C58.9526 239.606 59.2926 236.446 58.3389 233.749C56.0017 227.138 51.2168 220.85 46.7185 215.992" fill="#AD58B2"/>
<path d="M66.378 249.843H66.3769C66.0984 249.843 65.8735 249.587 65.8735 249.272C65.8993 232.842 58.8062 216.329 47.3644 206.18C47.1447 205.985 47.1074 205.628 47.2785 205.38C47.4508 205.133 47.7678 205.091 47.9864 205.285C59.6677 215.645 66.9073 232.502 66.882 249.275C66.882 249.589 66.6554 249.843 66.378 249.843" fill="white"/>
<path d="M60.1806 272.49C56.9931 273.647 52.9999 272.892 51.1552 269.736C48.9883 266.029 50.3446 260.321 47.4388 257.326C45.8143 255.652 43.4266 255.486 41.2732 254.983C39.1189 254.48 36.724 253.136 36.4044 250.679C35.9797 247.418 39.5236 244.718 39.0247 241.469C38.534 238.274 34.6214 237.267 33.4651 234.299C32.4103 231.589 34.2745 228.31 36.7378 227.301C39.2014 226.292 41.9503 226.984 44.4078 228.012C46.8651 229.039 49.2565 230.405 51.857 230.767C54.5609 231.142 57.6907 230.543 59.6795 232.645C62.3363 235.452 60.8161 240.805 62.8713 244.195C64.2468 246.463 66.8424 247.253 68.8276 248.846C71.306 250.836 72.8309 254.255 72.7702 257.688C72.7042 261.418 70.9658 264.112 68.4724 266.26C65.823 268.544 63.4559 271.3 60.1806 272.49Z" fill="#AD58B2"/>
<path d="M57.2588 273.002C54.846 273.002 52.4618 271.971 51.1552 269.737C48.9883 266.029 50.3446 260.321 47.4388 257.326C45.8143 255.652 43.4266 255.486 41.2732 254.983C39.1189 254.48 36.724 253.136 36.4044 250.679C36.3803 250.494 36.3688 250.311 36.3688 250.13C36.3682 247.323 39.0704 244.899 39.073 242.109C39.073 241.898 39.0578 241.684 39.0247 241.469C38.534 238.274 34.6214 237.267 33.4651 234.299C33.2592 233.769 33.1644 233.219 33.1638 232.667C33.1612 230.395 34.7558 228.113 36.7378 227.301C37.5852 226.954 38.4671 226.808 39.3587 226.808C41.0586 226.808 42.796 227.338 44.4078 228.012C46.865 229.039 49.2565 230.405 51.857 230.767C54.5609 231.142 57.6907 230.543 59.6795 232.644C62.3363 235.452 60.8161 240.805 62.8713 244.195C64.2468 246.463 66.8424 247.253 68.8276 248.846C71.2575 250.797 72.7708 254.122 72.772 257.487C72.772 257.554 72.7714 257.621 72.7702 257.688C72.7143 260.846 71.4596 263.261 69.5627 265.231C69.2192 265.588 68.8548 265.93 68.4724 266.26C65.823 268.544 63.4559 271.3 60.1806 272.49C59.525 272.728 58.835 272.885 58.1366 272.957C57.8448 272.987 57.5514 273.002 57.2588 273.002" fill="#893C9B"/>
<path d="M58.7444 246.996L58.7068 246.938C58.2298 246.159 57.7362 245.392 57.2119 244.653C52.5593 238.1 46.0589 233.217 38.9098 230.906C38.6361 230.817 38.3628 230.993 38.2866 231.296C38.2099 231.598 38.3645 231.913 38.6321 231.999C45.5825 234.247 51.9023 238.994 56.4259 245.365C56.5689 245.566 56.6941 245.783 56.8334 245.988C51.1298 243.617 45.3091 244.963 42.2064 247.788C41.9898 247.984 41.9554 248.343 42.1294 248.588C42.2287 248.727 42.3758 248.799 42.5223 248.799C42.6334 248.799 42.7457 248.759 42.8384 248.673C45.9099 245.88 52.2507 244.632 58.0038 247.777C61.5802 253.697 63.7295 260.731 64.108 267.885C64.1238 268.187 64.3464 268.419 64.6108 268.419L64.6412 268.418C64.9193 268.399 65.1306 268.13 65.1139 267.817C64.7214 260.401 62.4747 253.115 58.7444 246.996" fill="white"/>
<path d="M253.677 234.193C255.211 232.535 256.969 230.724 257.077 228.329C257.173 226.194 255.788 224.191 254.022 223.42C252.257 222.649 250.224 222.968 248.518 223.893C246.812 224.818 245.391 226.297 244.112 227.874C236.637 237.086 233.435 250.496 235.795 262.704C235.951 263.511 236.191 264.405 236.837 264.792C237.864 265.406 239.032 264.328 239.732 263.282C241.26 261.003 242.415 258.408 243.139 255.668C243.751 253.352 243.476 250.787 244.249 248.598C246.145 243.236 250.028 238.134 253.677 234.193" fill="#AD58B2"/>
<path d="M237.727 261.656H237.728C237.954 261.656 238.136 261.449 238.136 261.194C238.116 247.864 243.87 234.467 253.154 226.232C253.331 226.075 253.362 225.784 253.222 225.584C253.083 225.383 252.826 225.35 252.648 225.506C243.171 233.912 237.298 247.587 237.318 261.195C237.318 261.45 237.502 261.656 237.727 261.656Z" fill="white"/>
<path d="M242.755 280.031C245.341 280.97 248.581 280.356 250.077 277.797C251.836 274.789 250.736 270.157 253.093 267.728C254.411 266.37 256.347 266.235 258.095 265.827C259.843 265.419 261.785 264.329 262.045 262.335C262.39 259.69 259.515 257.498 259.92 254.863C260.317 252.271 263.492 251.453 264.43 249.045C265.286 246.848 263.773 244.186 261.774 243.368C259.776 242.549 257.545 243.111 255.552 243.945C253.558 244.778 251.618 245.887 249.508 246.18C247.315 246.485 244.775 245.999 243.162 247.703C241.006 249.981 242.239 254.324 240.572 257.074C239.456 258.915 237.351 259.556 235.74 260.848C233.729 262.462 232.491 265.236 232.541 268.022C232.595 271.047 234.005 273.233 236.028 274.976C238.178 276.828 240.098 279.065 242.755 280.031" fill="#AD58B2"/>
<path d="M245.125 280.446C244.319 280.446 243.509 280.304 242.755 280.031C240.098 279.065 238.177 276.828 236.028 274.976C234.005 273.233 232.595 271.047 232.541 268.021C232.54 267.967 232.54 267.913 232.54 267.858C232.54 265.128 233.768 262.431 235.74 260.848C237.35 259.556 239.456 258.915 240.572 257.074C242.239 254.324 241.006 249.981 243.162 247.703C244.775 245.999 247.314 246.485 249.508 246.179C251.618 245.887 253.558 244.778 255.552 243.945C256.86 243.398 258.269 242.969 259.649 242.969C260.373 242.969 261.087 243.086 261.774 243.368C263.383 244.026 264.677 245.878 264.674 247.722C264.674 248.169 264.597 248.616 264.43 249.045C263.492 251.453 260.317 252.271 259.92 254.862C259.892 255.038 259.88 255.211 259.88 255.382C259.882 257.645 262.074 259.612 262.074 261.89C262.074 262.037 262.065 262.186 262.045 262.335C261.785 264.329 259.842 265.419 258.095 265.827C256.347 266.235 254.411 266.37 253.093 267.728C250.736 270.157 251.835 274.789 250.077 277.797C249.017 279.61 247.083 280.447 245.125 280.446" fill="#893C9B"/>
<path d="M243.92 259.347L243.95 259.3C244.337 258.668 244.738 258.045 245.163 257.446C248.938 252.129 254.212 248.168 260.012 246.292C260.234 246.219 260.456 246.364 260.517 246.609C260.58 246.854 260.455 247.11 260.237 247.18C254.598 249.003 249.471 252.854 245.802 258.024C245.685 258.187 245.584 258.363 245.47 258.528C250.098 256.606 254.82 257.697 257.338 259.988C257.513 260.149 257.541 260.439 257.4 260.638C257.32 260.751 257.2 260.809 257.081 260.809C256.991 260.809 256.9 260.776 256.826 260.707C254.333 258.441 249.189 257.429 244.521 259.98C241.619 264.784 239.876 270.49 239.568 276.294C239.556 276.539 239.375 276.728 239.16 276.728L239.135 276.727C238.911 276.712 238.738 276.494 238.752 276.239C239.071 270.223 240.894 264.311 243.92 259.347" fill="white"/>
<path d="M184.811 54.6847C185.148 54.4648 185.423 54.6416 185.424 55.0815L185.435 59.7377C185.437 60.176 185.164 60.7114 184.826 60.9314C184.487 61.153 184.213 60.9737 184.211 60.5354L184.2 55.8801C184.199 55.4393 184.471 54.9064 184.811 54.6847" fill="#AD58B2"/>
<path d="M176.946 63.537C177.12 63.4233 177.294 63.4075 177.416 63.5154L179.731 65.5774C179.95 65.7725 179.917 66.2971 179.659 66.7487C179.545 66.9454 179.403 67.1015 179.265 67.1912C179.091 67.3057 178.916 67.3215 178.794 67.2119L176.479 65.1499C176.261 64.9532 176.294 64.431 176.553 63.9811C176.667 63.781 176.807 63.6283 176.946 63.537Z" fill="#AD58B2"/>
<path d="M174.222 69.547C174.326 69.4789 174.432 69.4449 174.528 69.454L177.641 69.7579C177.935 69.7869 178.038 70.207 177.869 70.6984C177.757 71.0263 177.55 71.3019 177.338 71.4397C177.235 71.5069 177.129 71.5426 177.034 71.5327L173.918 71.233C173.627 71.2023 173.524 70.7822 173.693 70.2908C173.805 69.9621 174.01 69.6848 174.222 69.547" fill="#AD58B2"/>
<path d="M177.362 81.0881C177.574 80.9503 177.78 80.9594 177.895 81.1404C178.065 81.4102 177.965 81.963 177.673 82.3714L174.571 86.7262C174.474 86.8615 174.371 86.9636 174.267 87.0309C174.055 87.1687 173.848 87.1604 173.734 86.9794C173.564 86.7096 173.664 86.1601 173.955 85.75L177.058 81.3936C177.154 81.2583 177.258 81.1553 177.362 81.0881" fill="#AD58B2"/>
<path d="M176.328 78.0905C176.619 77.9012 176.878 78.0042 176.931 78.3545C176.99 78.7496 176.768 79.3066 176.435 79.6005L172.905 82.7117L172.796 82.7964C172.506 82.9857 172.247 82.8819 172.193 82.5299C172.132 82.1373 172.353 81.5794 172.686 81.2856L176.22 78.1735L176.328 78.0905" fill="#AD58B2"/>
<path d="M192.692 53.271C192.832 53.1805 192.971 53.1507 193.086 53.2021C193.347 53.3126 193.382 53.7923 193.166 54.2705L190.868 59.34C190.748 59.6081 190.574 59.819 190.399 59.9327C190.26 60.0232 190.119 60.0522 190.004 60.0041C189.746 59.8887 189.709 59.4106 189.927 58.9307L192.225 53.8612C192.345 53.594 192.518 53.3848 192.692 53.271Z" fill="#AD58B2"/>
<path d="M189.001 52.9124C189.071 52.8676 189.142 52.8368 189.211 52.8244C189.529 52.7671 189.695 53.1166 189.58 53.6047L188.365 58.7796C188.275 59.1623 188.039 59.5159 187.79 59.6786C187.72 59.7251 187.649 59.7533 187.58 59.7666C187.263 59.8222 187.096 59.4744 187.211 58.9872L188.427 53.8122C188.517 53.4304 188.751 53.0759 189.001 52.9124" fill="#AD58B2"/>
<path d="M184.551 61.0267C184.351 61.0267 184.213 60.8458 184.211 60.5353L184.2 55.88C184.2 55.8784 184.2 55.8767 184.2 55.875C184.201 55.4351 184.473 54.9055 184.811 54.6847C184.909 54.6207 185.002 54.59 185.085 54.59C185.285 54.59 185.423 54.7693 185.424 55.0815L185.435 59.7376C185.435 59.7392 185.435 59.7409 185.435 59.7425C185.434 60.18 185.163 60.7121 184.826 60.9313C184.728 60.996 184.635 61.0267 184.551 61.0267" fill="#9B43A7"/>
<path d="M178.99 67.2858C178.917 67.2858 178.85 67.2617 178.794 67.2119L176.479 65.1499C176.382 65.0627 176.335 64.91 176.335 64.7282C176.335 64.5024 176.409 64.2301 176.553 63.9811C176.667 63.781 176.807 63.6283 176.946 63.537C177.04 63.4756 177.135 63.4423 177.221 63.4423C177.294 63.4423 177.36 63.4664 177.416 63.5154L179.731 65.5774C179.829 65.6645 179.876 65.8165 179.876 65.9983C179.876 66.2249 179.802 66.498 179.659 66.7487C179.545 66.9454 179.403 67.1015 179.265 67.1911C179.171 67.2526 179.076 67.2858 178.99 67.2858" fill="#9B43A7"/>
<path d="M177.066 71.5344C177.055 71.5344 177.044 71.5336 177.034 71.5328L173.918 71.2331C173.722 71.2132 173.612 71.0164 173.611 70.7408C173.611 70.6055 173.637 70.4528 173.693 70.2909C173.805 69.9622 174.01 69.6849 174.222 69.5471C174.314 69.4865 174.408 69.4525 174.495 69.4525C174.506 69.4525 174.517 69.4533 174.528 69.4541L177.641 69.758C177.838 69.7771 177.949 69.9738 177.95 70.2494C177.95 70.3839 177.924 70.5375 177.868 70.6985C177.757 71.0264 177.55 71.302 177.338 71.4398C177.247 71.4996 177.152 71.5344 177.066 71.5344" fill="#9B43A7"/>
<path d="M173.99 87.1255C173.886 87.1255 173.797 87.0782 173.734 86.9794C173.678 86.8897 173.651 86.7694 173.651 86.6332C173.652 86.3601 173.761 86.0239 173.955 85.75L177.058 81.3935C177.154 81.2582 177.258 81.1553 177.362 81.0881C177.457 81.0258 177.552 80.9934 177.638 80.9934C177.742 80.9934 177.832 81.0407 177.895 81.1403C177.951 81.23 177.978 81.3504 177.978 81.4865C177.978 81.7613 177.868 82.0983 177.673 82.3714L174.571 86.7262C174.474 86.8615 174.371 86.9636 174.267 87.0309C174.171 87.0931 174.076 87.1255 173.99 87.1255Z" fill="#9B43A7"/>
<path d="M172.524 82.8894C172.356 82.8894 172.229 82.7649 172.193 82.53C172.186 82.486 172.183 82.4387 172.183 82.3913C172.184 82.0145 172.392 81.5463 172.687 81.2856L176.22 78.1735L176.328 78.0905C176.425 78.0274 176.518 77.9967 176.601 77.9967C176.768 77.9967 176.895 78.1204 176.931 78.3545C176.938 78.3977 176.941 78.4425 176.941 78.489C176.94 78.8683 176.732 79.339 176.435 79.6005L172.905 82.7118L172.796 82.7964C172.7 82.8587 172.606 82.8894 172.524 82.8894" fill="#9B43A7"/>
<path d="M190.122 60.0265C190.081 60.0265 190.041 60.019 190.004 60.0041C189.86 59.9393 189.785 59.7617 189.784 59.5342C189.784 59.3541 189.83 59.1424 189.927 58.9307L192.225 53.8612C192.345 53.5939 192.518 53.3847 192.692 53.271C192.786 53.2104 192.879 53.1772 192.965 53.1772C193.008 53.1772 193.048 53.1847 193.086 53.2021C193.232 53.2635 193.307 53.4412 193.308 53.6678C193.308 53.8479 193.261 54.0596 193.166 54.2705L190.868 59.34C190.748 59.6081 190.574 59.8189 190.399 59.9327C190.305 59.9933 190.21 60.0265 190.122 60.0265" fill="#9B43A7"/>
<path d="M187.516 59.7725C187.304 59.7725 187.174 59.5757 187.174 59.2785C187.175 59.1897 187.187 59.0909 187.211 58.9872L188.427 53.8122C188.518 53.4304 188.751 53.0759 189.001 52.9124C189.071 52.8676 189.142 52.8369 189.211 52.8244C189.234 52.8203 189.256 52.8186 189.278 52.8186C189.487 52.8186 189.616 53.0145 189.617 53.3092C189.617 53.3997 189.605 53.4993 189.58 53.6047L188.365 58.7796C188.275 59.1623 188.039 59.516 187.79 59.6787C187.72 59.7252 187.649 59.7534 187.58 59.7666C187.558 59.7708 187.536 59.7725 187.516 59.7725" fill="#9B43A7"/>
<path d="M186.73 286.667C188.496 288.813 191.173 289.722 193.733 289.647C196.294 289.57 198.773 288.611 201.142 287.483C203.51 286.357 206.485 283.202 209.046 283.261C211.411 283.316 214.205 282.963 216.538 282.667C216.766 276.685 215.473 270.926 215.473 270.926L203.514 270.56C200.287 275.677 194.008 279.934 189.259 281.531C187.733 282.043 186.605 283.477 186.308 285.17L186.317 285.258C186.485 286.143 186.73 286.667 186.73 286.667" fill="#33535F"/>
<path d="M209.046 283.261C206.485 283.202 203.51 286.357 201.142 287.483C198.772 288.611 196.294 289.57 193.733 289.647C191.173 289.721 188.496 288.813 186.73 286.667C186.73 286.667 186.485 286.143 186.316 285.258L186.308 285.17C186.203 285.762 186.197 286.385 186.316 287.014C186.485 287.898 186.73 288.422 186.73 288.422C188.496 290.568 191.173 291.478 193.733 291.402C196.294 291.327 198.772 290.366 201.142 289.24C203.51 288.113 206.485 284.957 209.046 285.017C211.68 285.078 213.954 284.831 216.421 284.524C216.48 283.906 216.515 283.286 216.538 282.667C214.205 282.963 211.411 283.316 209.046 283.261" fill="#273E47"/>
<path d="M240.474 287.526C240.465 288.939 240.379 290.345 240.115 291.723C239.654 294.134 238.581 296.487 236.799 297.844C235.263 299.013 233.366 299.338 231.531 299.466C229.906 299.58 228.233 299.555 226.71 298.89C225.553 298.386 224.492 297.449 223.889 296.225L223.9 296.297C224.262 298.133 225.624 299.543 227.147 300.208C228.669 300.872 230.342 300.897 231.966 300.784C233.802 300.654 235.699 300.33 237.235 299.161C239.019 297.803 240.091 295.451 240.551 293.04C240.814 291.662 240.901 290.255 240.91 288.842C240.924 286.89 241.625 285.047 242.855 283.712C243.154 283.387 243.442 283.05 243.704 282.701C244.082 282.197 244.265 281.536 244.221 280.871C244.205 280.61 244.181 280.354 244.152 280.104C243.714 280.697 242.679 282.113 242.419 282.395C241.188 283.731 240.487 285.574 240.474 287.526" fill="#273E47"/>
<path d="M231.326 272.903C231.788 275.751 231.339 278.727 230.396 281.412C229.451 284.096 228.031 286.521 226.504 288.818C225.771 289.922 225.005 291.011 224.467 292.257C223.938 293.479 223.645 294.889 223.889 296.225C224.492 297.449 225.553 298.386 226.71 298.89C228.233 299.555 229.906 299.58 231.531 299.466C233.366 299.337 235.263 299.013 236.799 297.844C238.581 296.487 239.654 294.134 240.115 291.723C240.379 290.345 240.465 288.939 240.474 287.526C240.487 285.573 241.188 283.731 242.419 282.395C242.679 282.113 243.714 280.697 244.152 280.104C243.759 276.627 242.363 274.165 242.363 274.165L231.326 272.903" fill="#33535F"/>
<path d="M199.244 149.196L200.146 220.639L203.059 270.643C210.434 276.039 215.774 271.625 215.774 271.625C218.572 247.934 218.953 233.366 217.428 223.507L218.826 184.954L223.022 224.978L230.082 274.041C237.646 279.718 242.987 274.041 242.987 274.041C242.987 255.879 244.385 235.573 240.062 222.477C243.113 182.011 238.027 149.932 238.027 149.932L199.244 149.196" fill="#273E47"/>
<path d="M217.283 170.232L218.826 184.954L218.172 203.01L215.329 173.329C208.749 170.349 207.891 166.155 207.891 166.155C212.183 169.797 217.283 170.232 217.283 170.232Z" fill="#17282F"/>
<path d="M204.837 66.6151L203.154 65.6214L203.113 65.5974L203.045 65.5575V65.5642C202.778 65.4305 202.459 65.4222 202.17 65.6107L187.105 75.4317C186.504 75.8244 186.134 76.5491 186.134 77.3335V85.5699C186.134 85.946 186.297 86.2523 186.533 86.4465L186.528 86.4507L186.558 86.4689L186.744 86.5802L188.376 87.5597L188.298 86.0597L202.656 76.6993C203.258 76.3075 203.627 75.5828 203.627 74.7984V67.6295L204.837 66.6151" fill="#33535F"/>
<path d="M204.357 77.7055L189.292 87.5266C188.644 87.9491 187.834 87.4211 187.834 86.5761V78.3388C187.834 77.5544 188.204 76.8297 188.806 76.4387L203.871 66.6168C204.518 66.1943 205.328 66.7222 205.328 67.5673V75.8045C205.328 76.5881 204.958 77.3128 204.357 77.7055" fill="#33535F"/>
<path d="M188.806 78.3387C188.806 77.9478 188.992 77.5842 189.291 77.3891L204.357 67.5672V75.8044C204.357 76.1954 204.171 76.5598 203.871 76.7549L188.809 86.5735L188.806 78.3387" fill="#AD58B2"/>
<path d="M197.807 90.5157C198.017 89.9786 198.342 89.5079 198.783 89.1974C200.051 88.3026 201.049 86.9212 201.559 85.3316C202.092 83.668 202.094 81.8592 202.249 80.0986C202.404 78.3379 202.763 76.495 203.836 75.205C201.16 73.9872 200.073 76.7374 199.1 81.132L190.139 86.9744L190.267 87.3081C190.521 87.9688 190.509 88.7209 190.234 89.3709L187.626 95.3519C192.247 98.8442 196.434 96.4701 196.434 96.4701C196.884 94.1648 197.48 91.3524 197.807 90.5157" fill="#F6879F"/>
<path d="M195.997 102.635C196.467 100.485 197.033 97.6846 197.401 95.1336C194.106 96.4684 190.267 95.9571 187.338 93.7913C186.279 95.8068 185.331 97.912 184.49 100.082C187.673 102.92 192.1 103.913 195.997 102.635Z" fill="#DADBD8"/>
<path d="M195.168 106.221C195.168 106.221 195.537 104.741 195.997 102.635C192.1 103.913 187.674 102.92 184.49 100.082C181.934 106.682 180.386 113.881 179.845 120.984C179.684 123.093 179.621 125.252 180.124 127.291C180.626 129.329 181.773 131.256 183.477 132.136C185.856 133.364 188.698 132.304 190.854 130.634C194.904 127.498 197.449 122.493 199.857 117.66L206.382 91.3649C202.497 91.8281 199.337 94.2703 195.168 106.221Z" fill="#EDEDEB"/>
<path d="M191.251 122.079C191.251 122.079 193.64 112.325 195.168 106.221C195.168 106.221 196.692 115.842 191.251 122.079Z" fill="#D1D2D0"/>
<path d="M195.978 124.773C196.386 121.462 196.794 118.151 197.201 114.841C197.784 110.114 198.407 105.249 200.543 101.13C200.79 100.653 201.058 100.189 201.344 99.74C199.309 105.256 198.368 112.253 198.796 119.767C197.918 121.482 196.999 123.18 195.978 124.773" fill="#D1D2D0"/>
<path d="M213.335 90.5348L206.382 91.3649C200.685 97.037 197.745 108.935 198.97 122.079C200.195 135.222 199.245 149.196 199.245 149.196C214.682 161.925 235.577 152.681 238.027 149.914L236.05 133.772C235.921 131.958 236.194 130.138 236.831 128.467C238.289 124.642 240.89 117.117 241.239 111.288C241.73 103.124 238.422 96.2758 238.422 96.2758L228.314 91.2951L213.335 90.5348" fill="#EDEDEB"/>
<path d="M236.045 133.438C236.039 133.404 236.032 133.369 236.027 133.334C235.968 131.707 236.232 130.086 236.789 128.58C236.221 130.117 235.971 131.777 236.045 133.438ZM236.793 128.57C236.793 128.567 236.794 128.566 236.795 128.563C236.794 128.565 236.793 128.567 236.793 128.57Z" fill="#E0E1DE"/>
<path d="M236.027 133.334C235.078 127.893 235.58 122.122 237.472 116.995C237.472 116.995 237.62 120.407 238.127 124.867C237.658 126.25 237.206 127.482 236.831 128.467C236.819 128.498 236.807 128.531 236.795 128.563C236.794 128.566 236.793 128.567 236.793 128.57C236.791 128.573 236.79 128.576 236.789 128.58C236.232 130.086 235.968 131.707 236.027 133.334" fill="#D1D2D0"/>
<path d="M211.404 101.983C205.586 117.098 205.678 132.663 205.678 132.663L208.541 139.615L213.029 132.974C212.386 117.929 213.567 102.433 213.567 102.433L211.404 101.983Z" fill="#AD58B2"/>
<path d="M211.161 96.2759C210.946 99.3199 211.404 101.983 211.404 101.983C212.172 102.571 213.567 102.433 213.567 102.433C215.418 100.807 217.042 97.6945 217.042 97.6945L213.567 96.2759H211.161Z" fill="#AD58B2"/>
<path d="M213.567 96.2758C216.562 97.521 219.224 103.539 219.224 103.539C227.088 95.9994 228.314 91.2951 228.314 91.2951C226.292 88.0444 224.087 87.5264 224.087 87.5264L213.567 96.2758Z" fill="#DADBD8"/>
<path d="M213.567 96.2759C211.283 96.3456 209.261 99.9425 209.261 99.9425C208.894 93.6478 213.567 88.8049 213.567 88.8049V96.2759Z" fill="#DADBD8"/>
<path d="M224.27 80.4746L213.567 84.7928V89.2705C215.969 88.7459 218.358 88.0494 220.352 86.488C222.197 85.0444 223.581 82.8844 224.27 80.4746Z" fill="#F47089"/>
<path d="M224.27 80.4746C223.581 82.8845 222.197 85.0444 220.352 86.488C218.358 88.0495 215.969 88.7459 213.567 89.2706V96.2759C213.567 96.2759 224.883 90.5348 224.883 87.8369C224.883 85.1391 224.883 80.2273 224.883 80.2273L224.27 80.4746" fill="#F6879F"/>
<path d="M203.651 62.755C202.149 62.8131 200.633 62.2569 199.447 61.2126C198.77 60.6149 198.203 59.862 197.782 59.0161C197.421 58.2873 198.018 57.4223 198.745 57.5734C199.568 57.7452 200.422 57.7569 201.227 57.6033C199.323 54.805 198.474 51.184 198.918 47.7191C199.025 46.8923 199.831 46.4133 200.496 46.7811C203.887 48.6629 207.731 49.5918 211.491 49.2905C213.511 49.1278 215.503 48.6455 217.523 48.4712C219.542 48.296 221.648 48.4529 223.453 49.4906C225.258 50.5299 226.696 52.5985 226.693 54.8855C227.172 54.1101 227.869 53.6984 228.698 53.5764C229.528 53.4544 230.398 53.7457 231.036 54.3575C229.868 55.0806 228.727 55.8127 227.559 56.5358C228.755 56.0535 230.262 57.1102 230.859 58.3778C231.455 59.6445 231.485 61.1429 231.501 62.5782C231.523 64.4849 231.544 66.4042 231.274 68.2869C231.003 70.1695 230.423 72.0332 229.357 73.5141C228.46 74.7584 227.234 75.6964 225.877 76.1746C224.052 76.8196 222.054 76.6237 220.229 75.9712C218.406 75.3187 216.729 74.2313 215.108 73.0841C211.052 70.2144 207.165 66.4249 203.651 62.755" fill="#17282F"/>
<path d="M203.397 58.9523C202.226 66.8027 203.008 75.0108 205.626 82.4022C206.235 84.1197 207.024 85.8986 208.447 86.8159C209.938 87.778 211.784 87.5771 213.484 87.2882C216.219 86.8225 218.975 86.1866 221.438 84.7613C223.9 83.3352 226.063 81.0233 226.943 78.0615C228.754 78.5513 230.645 77.6066 231.765 75.9273C232.885 74.2479 233.288 72.0822 233.328 69.9812C233.354 68.6355 233.109 67.0459 232.039 66.454C231.042 65.9028 229.847 66.5212 228.986 67.309C227.577 68.5982 226.526 70.3804 226.015 72.3453C225.227 69.068 224.001 65.9053 223.214 62.6272C222.905 61.3388 222.522 59.9335 221.525 59.2138C220.307 58.333 218.72 58.8385 217.315 59.2312C213.032 60.429 207.61 60.434 203.397 58.9523Z" fill="#F6879F"/>
<path d="M211.859 68.902L208.464 75.3537L212.51 76.212L211.859 68.902Z" fill="#F47089"/>
<path d="M216.411 78.4351C215.386 78.9987 214.361 79.5616 213.335 80.1244C213.784 80.913 214.911 81.2558 215.667 80.8723C216.425 80.4888 216.636 79.3374 216.411 78.4351" fill="#F47089"/>
<path d="M214.97 81.03C214.334 81.03 213.659 80.693 213.335 80.1244C214.361 79.5616 215.386 78.9987 216.411 78.4351C216.467 78.6609 216.496 78.9025 216.496 79.1432C216.496 79.8654 216.236 80.5851 215.667 80.8723C215.456 80.9794 215.217 81.03 214.97 81.03" fill="#B8515E"/>
<path d="M214.6 80.9859C214.97 81.0598 215.351 81.0333 215.667 80.8722C216.262 80.5709 216.516 79.7972 216.491 79.0426C216.054 79.0443 215.617 79.2054 215.278 79.5183C214.889 79.8777 214.651 80.4215 214.6 80.9859Z" fill="#F47089"/>
<path d="M217.718 69.1586C217.783 69.88 217.318 70.5242 216.679 70.5964C216.04 70.6686 215.47 70.1432 215.406 69.4218C215.342 68.7004 215.807 68.0571 216.446 67.984C217.085 67.9118 217.655 68.4373 217.718 69.1586Z" fill="#17282F"/>
<path d="M207.972 69.8409C208.037 70.5622 207.571 71.2056 206.932 71.2786C206.292 71.3509 205.723 70.8254 205.658 70.104C205.594 69.3827 206.06 68.7393 206.699 68.6663C207.337 68.594 207.907 69.1195 207.972 69.8409Z" fill="#17282F"/>
<path d="M206.383 64.7714C205.588 65.536 204.792 66.3005 203.997 67.0651C203.683 66.4076 203.847 65.4878 204.315 64.9591C204.784 64.4303 205.8 64.417 206.383 64.7714Z" fill="#17282F"/>
<path d="M216.271 63.4871C217.185 64.0574 218.099 64.6277 219.014 65.198C219.205 64.4816 218.881 63.6175 218.33 63.2057C217.778 62.7923 216.779 63.0082 216.271 63.4871Z" fill="#17282F"/>
<path d="M262.068 124.638L265.759 122.578C266.908 121.936 267.864 120.929 268.51 119.678L269.666 117.44C270.458 115.906 271.644 114.685 273.051 113.889C276.639 111.86 278.915 109.489 278.915 109.489C279.678 110.878 279.494 112.697 278.44 113.82C277.315 115.019 276.036 115.991 276.036 115.991L277.807 116.5C279.085 116.867 280.433 116.773 281.663 116.233L286.719 114.013C287.355 113.734 288.016 114.346 287.903 115.106C287.519 117.678 286.411 120.295 285.396 122.274C284.297 124.415 282.409 125.892 280.256 126.35C277.672 126.9 275.177 127.326 273.753 127.556C272.938 127.688 272.151 127.965 271.413 128.378L265.989 131.418L262.068 124.638" fill="#F6879F"/>
<path d="M258.552 131.06C257.904 129.359 257.691 127.46 257.902 125.625L250.98 129.343C250.98 129.343 248.866 119.9 248.039 112.017C247.212 104.134 247.396 98.836 238.422 96.2759L237.472 116.995C237.472 116.995 238.574 142.313 245.007 145.115C250.334 147.434 254.089 141.714 262.213 135.789C260.605 134.681 259.297 133.016 258.552 131.06" fill="#EDEDEB"/>
<path d="M250.98 129.343C250.98 129.343 250.775 128.43 250.469 126.934C250.775 128.429 250.98 129.343 250.98 129.343Z" fill="#E0E1DE"/>
<path d="M246.324 134.531C245.637 130.097 249.072 127.71 250.469 126.934C250.775 128.43 250.98 129.343 250.98 129.343C248.285 130.657 246.569 133.355 246.324 134.531Z" fill="#D1D2D0"/>
<path d="M264.12 122.287L257.903 125.625C257.69 127.46 257.904 129.359 258.552 131.06C259.297 133.016 260.605 134.681 262.213 135.789C263.9 134.56 265.771 133.321 267.888 132.144C267.888 132.144 264.58 129.135 264.12 122.287" fill="#DADBD8"/>
<path d="M258.662 39.2837L258.761 39.1857L258.662 39.2837ZM257.769 40.992L257.745 41.1273L257.769 40.992ZM258.174 39.917L258.105 40.0341L258.174 39.917ZM258.447 39.5202L258.352 39.6431L258.447 39.5202ZM289.591 20.8858C289.589 20.4749 289.392 20.1412 289.115 19.9628V19.9619L284.871 17.3006L284.85 17.2873L284.834 17.2773V17.2798C284.563 17.1163 284.222 17.0955 283.917 17.2939L254.861 36.2371C254.334 36.5808 253.931 37.1021 253.692 37.7098C253.531 38.1165 253.441 38.5606 253.443 39.0213L253.473 51.2182L243.418 62.9593C242.516 64.0144 242.419 65.6024 243.12 65.8523L247.13 68.3476C247.258 68.5028 247.439 68.585 247.68 68.5527L253.515 67.7491L253.537 76.7044C253.538 77.1086 253.731 77.4365 254 77.6175L253.999 77.6183L254.005 77.6216L254.021 77.6316L258.241 80.2764L258.302 80.3145L258.348 80.3369C258.61 80.4723 258.925 80.4831 259.21 80.2971L288.266 61.3539C289.147 60.7803 289.688 59.7177 289.685 58.5697L289.591 20.8858" fill="#AD58B2"/>
<path d="M279.596 32.6842C279.483 32.7581 279.371 32.8486 279.262 32.9855C279.183 33.0843 279.13 33.2005 279.093 33.3259C278.757 34.058 278.513 34.8051 278.282 35.5539C278.039 36.2255 277.812 36.8995 277.608 37.5761C277.555 37.7014 277.503 37.8309 277.481 37.9596C277.411 38.1273 277.354 38.2974 277.318 38.4684C277.188 38.8453 277.057 39.2222 276.926 39.5999C276.88 39.7078 276.834 39.8141 276.79 39.922C276.66 40.2457 276.549 40.5703 276.469 40.8998C276.373 41.2958 276.395 41.5888 276.554 41.7831C276.859 42.1608 277.271 42.3243 277.685 42.4845L277.8 42.5252C277.914 42.565 278.033 42.5958 278.151 42.6323C278.354 42.746 278.557 42.8564 278.759 42.9693L278.876 43.059L278.997 43.2175C279.047 43.298 279.072 43.3495 279.089 43.4093C279.113 43.4973 279.119 43.6068 279.095 43.7505C279.062 43.919 279.026 44.0908 278.993 44.2593C278.904 44.5407 278.812 44.8246 278.722 45.1069C278.678 45.2297 278.635 45.3517 278.592 45.4738C278.454 45.8697 278.314 46.2682 278.174 46.6658C278.02 47.0543 277.907 47.3814 277.795 47.7084C277.692 47.94 277.591 48.1758 277.514 48.4174C277.464 48.5361 277.414 48.6564 277.363 48.776C277.236 49.0765 277.109 49.3778 276.983 49.6775C276.944 49.7663 276.906 49.856 276.867 49.9439C276.732 50.2353 276.597 50.525 276.461 50.8172C276.41 50.9285 276.357 51.0397 276.306 51.1509C276.145 51.4664 275.987 51.7818 275.826 52.0973C275.786 52.1769 275.743 52.2575 275.701 52.3363C275.526 52.6592 275.349 52.983 275.174 53.3067C275.125 53.3898 275.077 53.4728 275.027 53.5541C274.658 54.1601 274.29 54.7652 273.92 55.3712C273.775 55.5954 273.629 55.8187 273.484 56.0428L273.36 56.2262C272.881 56.9111 272.445 57.5312 272.01 58.1521C271.859 58.3397 271.708 58.5232 271.557 58.7133C271.437 58.8652 271.321 58.9748 271.211 59.047C271.013 59.1765 270.83 59.1814 270.66 59.0802C270.55 59.0146 270.439 58.9482 270.327 58.8834L270.249 58.812C269.77 58.3737 269.29 57.9346 268.751 57.6034C268.567 57.4897 268.362 57.4208 268.101 57.5918L267.93 57.7296C267.724 57.9354 267.529 58.1654 267.362 58.4534C267.308 58.4916 267.271 58.5547 267.244 58.6327C266.839 59.2703 266.391 59.8439 265.968 60.4532C265.577 60.9554 265.193 61.4726 264.821 62.0096C264.608 62.2811 264.402 62.5625 264.208 62.8655C263.975 63.1685 263.754 63.4839 263.545 63.8218C263.462 63.9347 263.378 64.0476 263.316 64.1854C263.037 64.5515 263.029 64.8793 263.054 65.2064C263.04 65.4496 263.077 65.6514 263.101 65.8664C263.133 66.1469 263.165 66.4267 263.256 66.6525C263.281 66.8451 263.327 67.0144 263.39 67.1647L263.459 67.3091L263.482 67.4245L263.567 67.5606C263.609 67.6984 263.684 67.7839 263.78 67.8362C263.849 67.9491 263.939 68.0213 264.041 68.0753L264.228 68.1608C264.296 68.1816 264.326 68.1882 264.355 68.1981L264.506 68.2637L264.583 68.287C264.662 68.3061 264.747 68.3127 264.837 68.3036L264.958 68.3218C265.06 68.3434 265.163 68.365 265.285 68.3268C265.392 68.3559 265.513 68.3401 265.637 68.316C265.752 68.3227 265.868 68.3185 265.993 68.282C266.1 68.2646 266.152 68.2604 266.206 68.2529C266.366 68.2347 266.531 68.1923 266.7 68.1317L266.775 68.1168C266.864 68.096 266.909 68.0877 266.956 68.0703L267.076 68.013C267.213 67.9624 267.24 67.95 267.266 67.9383C267.441 67.8728 267.619 67.798 267.797 67.7034L267.949 67.6187L268.06 67.549C268.161 67.4826 268.263 67.4095 268.364 67.3265C268.579 67.1754 268.646 67.1273 268.713 67.0742C268.84 66.9754 268.965 66.8658 269.09 66.7438C269.203 66.6608 269.315 66.5744 269.425 66.474L269.556 66.3445L269.62 66.2748L269.805 66.0971C269.989 65.9162 270.172 65.7269 270.347 65.5111C270.488 65.3899 270.619 65.238 270.747 65.0769L270.857 64.9383C271.137 64.6585 271.354 64.4045 271.566 64.1364C271.757 63.9463 271.942 63.733 272.123 63.5088C272.265 63.3602 272.407 63.2141 272.535 63.029C272.61 62.9402 272.684 62.8514 272.759 62.7617C272.825 62.7111 272.88 62.6347 272.93 62.5492L273.009 62.4479L273.135 62.311C273.203 62.2313 273.269 62.1441 273.33 62.0495C273.461 61.9009 273.584 61.7423 273.704 61.5755L273.822 61.4061L273.941 61.2476C274.165 60.9513 274.389 60.6599 274.592 60.3295C274.699 60.2149 274.788 60.0747 274.871 59.9244C275.012 59.76 275.127 59.5608 275.246 59.3657C275.436 59.1134 275.604 58.837 275.768 58.5564C275.87 58.4036 275.917 58.3322 275.963 58.2609L276.1 58.0458C276.192 57.9006 276.277 57.7503 276.36 57.5951C276.417 57.5104 276.475 57.4241 276.529 57.3361C276.584 57.2473 276.636 57.1551 276.681 57.0572C276.789 56.9044 276.887 56.7434 276.966 56.5633C277.109 56.3549 277.231 56.1266 277.347 55.895L277.469 55.7008L277.52 55.5978L277.57 55.4908L277.691 55.2899C277.811 55.0848 277.921 54.8723 278.024 54.6548C278.091 54.5295 278.132 54.4556 278.172 54.3809C278.327 54.0787 278.482 53.7782 278.638 53.4744C278.699 53.3864 278.749 53.2885 278.787 53.1822C278.908 52.9672 279.02 52.7481 279.126 52.5223C279.161 52.4484 279.194 52.3728 279.227 52.2973C279.317 52.1421 279.352 52.0582 279.386 51.9736C279.516 51.6996 279.648 51.424 279.779 51.1493C279.85 50.9932 279.92 50.8396 279.989 50.6861C280.096 50.4719 280.204 50.2594 280.278 50.0328C280.594 49.3753 280.868 48.7062 281.124 48.0297C281.163 47.9276 281.202 47.8255 281.242 47.7242C281.354 47.4793 281.451 47.2303 281.526 46.9788C281.829 46.2059 282.101 45.4289 282.327 44.6478L282.393 44.4519C282.548 43.992 282.678 43.5338 282.778 43.0781C282.947 42.5144 283.076 41.9566 283.202 41.3987C283.243 41.212 283.286 41.0277 283.328 40.8409L283.372 40.6541L283.407 40.5271C283.425 40.4433 283.444 40.3603 283.464 40.2772C283.65 39.5783 283.795 38.8885 283.889 38.2136L283.897 38.1073L283.925 37.9272L283.938 37.8176L283.962 37.6242L283.976 37.4233C284.024 37.1145 284.051 36.8157 284.044 36.5351C284.041 36.4123 284.041 36.2902 284.041 36.1665C284.042 36.076 284.05 35.9789 284.022 35.9109L284.008 35.7681C284.002 35.4842 283.961 35.2293 283.889 35.0011C283.828 34.6043 283.723 34.254 283.581 33.9418C283.375 33.379 283.141 32.8535 282.792 32.4792C282.686 32.3297 282.573 32.1953 282.415 32.1347L282.334 32.0766C282.216 31.9695 282.07 31.928 281.906 31.9271C281.49 31.8657 281.025 32.0168 280.555 32.1919L280.399 32.2617C280.244 32.3181 280.133 32.3555 280.018 32.431L279.945 32.4825C279.829 32.5514 279.712 32.6087 279.596 32.6842Z" fill="white"/>
<path d="M258.241 80.2764L254.021 77.6316L254.005 77.6217L253.999 77.6183L254 77.6175C253.731 77.4365 253.538 77.1086 253.537 76.7044L253.515 67.7491L257.761 67.1647L257.792 79.3749C257.792 79.7725 257.979 80.0937 258.241 80.2764" fill="#A34DAC"/>
<path d="M283.917 17.2938C283.921 17.2913 283.924 17.2897 283.927 17.2872C283.924 17.2897 283.921 17.2913 283.917 17.2938ZM284.821 17.2723C284.815 17.2689 284.81 17.2656 284.804 17.2631C284.81 17.2656 284.815 17.2689 284.821 17.2723ZM284.8 17.2598C284.673 17.1901 284.531 17.1511 284.386 17.1511C284.531 17.1511 284.673 17.1901 284.8 17.2598ZM284.382 17.1511C284.382 17.1511 284.383 17.1511 284.384 17.1511C284.383 17.1511 284.382 17.1511 284.382 17.1511Z" fill="white"/>
<path d="M257.911 40.4607L253.692 37.7097C253.931 37.102 254.334 36.5807 254.861 36.2371L283.917 17.2938C283.921 17.2913 283.924 17.2897 283.927 17.2872C284.075 17.1934 284.23 17.1511 284.382 17.1511C284.382 17.1511 284.383 17.1511 284.384 17.1511C284.385 17.1511 284.385 17.1511 284.386 17.1511C284.531 17.1511 284.673 17.1901 284.8 17.2598C284.801 17.2615 284.803 17.2623 284.804 17.2632C284.81 17.2656 284.815 17.269 284.821 17.2723C284.825 17.2748 284.829 17.2772 284.834 17.2797V17.2773L284.85 17.2872L284.871 17.3005L289.114 19.9618V19.9627C288.972 19.8705 288.809 19.8199 288.643 19.8199C288.485 19.8199 288.324 19.8647 288.171 19.9643L259.116 38.9067C258.565 39.267 258.147 39.8174 257.911 40.4607" fill="#C171BF"/>
<path d="M257.728 53.8887L253.473 51.2182L253.443 39.0213C253.443 39.0172 253.443 39.0138 253.443 39.0105C253.443 38.554 253.533 38.1132 253.692 37.7097L257.911 40.4607C257.771 40.8443 257.696 41.2626 257.697 41.691L257.728 53.8887Z" fill="#B764B9"/>
<path d="M247.13 68.3475L243.12 65.8522C242.812 65.7426 242.658 65.3741 242.659 64.9067C242.66 64.3099 242.912 63.5511 243.418 62.9593L253.473 51.2181L257.728 53.8886L247.673 65.6297C246.895 66.5395 246.716 67.8445 247.13 68.3475" fill="#B35EB6"/>
<path d="M150.89 13.7185L150.896 13.7118C150.34 11.3169 146.379 6.76293 142.435 6.85839C142.293 6.85673 141.584 6.94555 141.328 7.12485L64.7428 60.605C63.4408 61.5139 62.4358 62.8803 61.7995 64.4766C61.3168 65.6869 61.0399 67.0267 61.0399 68.4205V271.752C61.0399 276.931 65.9058 281.874 70.4743 279.496L70.505 279.471C70.6035 279.426 70.7028 279.391 70.7984 279.325L147.387 225.756C149.673 224.157 151.086 221.174 151.086 217.944V14.6988C151.086 14.3361 151.007 14.0115 150.89 13.7185Z" fill="#273E47"/>
<path d="M71.7238 89.9122C71.7238 88.296 72.4307 86.8034 73.5752 86.004L144.686 36.3483C145.907 35.4957 147.422 36.5774 147.422 38.3015V202.26C147.422 203.872 146.714 205.369 145.572 206.167L74.4618 255.904C73.2411 256.758 71.7238 255.676 71.7238 253.952V89.9122Z" fill="#AD58B2"/>
<path d="M61.0399 68.4206V271.752C61.0399 276.931 65.9058 281.874 70.4743 279.496L70.505 279.471C69.3475 279.985 68.0601 278.962 68.0601 277.372V74.0405C68.0601 72.2391 68.5123 70.5258 69.2975 69.0747L61.7995 64.4767C61.3168 65.687 61.0399 67.0268 61.0399 68.4206Z" fill="#17282F"/>
<path d="M142.435 6.85848C142.293 6.85682 141.584 6.94563 141.328 7.12494L64.7429 60.6051C63.441 61.514 62.4359 62.8804 61.7996 64.4767L69.2976 69.0747C69.921 67.9225 70.7503 66.933 71.7634 66.2249L148.349 12.7448C149.313 12.0708 150.45 12.6145 150.89 13.7185L150.896 13.7119C150.34 11.317 146.379 6.76301 142.435 6.85848" fill="#33535F"/>
<path d="M119.012 46.3213C119.55 45.9395 119.996 46.235 119.998 46.9937C119.999 47.7524 119.557 48.6938 119.019 49.0748L103.993 59.7227C103.454 60.1045 103.021 59.7841 103.019 59.0254C103.018 58.2667 103.449 57.3502 103.987 56.9692L119.012 46.3213" fill="#17282F"/>
<path d="M100.128 59.7035C100.665 59.3217 101.1 59.6255 101.101 60.3842C101.104 61.143 100.672 62.076 100.134 62.4579C99.5965 62.8389 99.1503 62.5268 99.1488 61.768C99.1473 61.0093 99.5899 60.0846 100.128 59.7035" fill="#17282F"/>
<path d="M109.746 44.7723C110.82 44.0102 111.687 44.617 111.691 46.1328C111.694 47.6486 110.833 49.5131 109.758 50.2743C108.683 51.0355 107.793 50.4129 107.789 48.8971C107.786 47.3813 108.671 45.5335 109.746 44.7723" fill="#17282F"/>
<path d="M109.751 236.192C111.939 234.641 113.706 235.875 113.713 238.962C113.721 242.05 111.966 245.847 109.777 247.398C107.588 248.95 105.775 247.68 105.767 244.593C105.76 241.506 107.562 237.743 109.751 236.192" fill="#17282F"/>
<path d="M116.98 121.677C116.809 121.794 116.638 121.937 116.472 122.151C116.352 122.308 116.272 122.49 116.215 122.688C115.705 123.841 115.336 125.017 114.983 126.197C114.616 127.255 114.27 128.317 113.962 129.382C113.879 129.579 113.801 129.783 113.768 129.986C113.661 130.251 113.575 130.518 113.52 130.788C113.322 131.381 113.124 131.975 112.925 132.57C112.855 132.74 112.785 132.907 112.719 133.076C112.521 133.587 112.352 134.097 112.231 134.616C112.084 135.241 112.118 135.703 112.359 136.008C112.823 136.604 113.449 136.861 114.078 137.113L114.252 137.177C114.426 137.24 114.606 137.288 114.785 137.347C115.094 137.525 115.401 137.699 115.708 137.877L115.887 138.018C115.949 138.101 116.013 138.18 116.07 138.268C116.147 138.394 116.185 138.475 116.209 138.569C116.247 138.709 116.256 138.881 116.219 139.107C116.168 139.373 116.115 139.644 116.063 139.909C115.928 140.352 115.79 140.8 115.652 141.244C115.586 141.437 115.52 141.628 115.455 141.821C115.244 142.445 115.033 143.074 114.821 143.699C114.586 144.31 114.414 144.825 114.245 145.341C114.088 145.706 113.936 146.077 113.819 146.458C113.743 146.646 113.666 146.834 113.59 147.022C113.396 147.496 113.202 147.97 113.011 148.443C112.952 148.583 112.894 148.722 112.836 148.862C112.63 149.322 112.426 149.778 112.219 150.237C112.141 150.413 112.061 150.588 111.983 150.764C111.739 151.26 111.498 151.757 111.255 152.254C111.192 152.379 111.129 152.506 111.065 152.631C110.799 153.14 110.531 153.65 110.265 154.158C110.19 154.29 110.116 154.42 110.042 154.549C109.48 155.503 108.921 156.455 108.36 157.41C108.139 157.762 107.918 158.115 107.697 158.468C107.631 158.568 107.571 158.662 107.509 158.757C106.78 159.835 106.119 160.812 105.459 161.791C105.23 162.086 105 162.375 104.771 162.675C104.588 162.912 104.414 163.086 104.246 163.199C103.944 163.403 103.666 163.412 103.409 163.253C103.241 163.149 103.073 163.044 102.902 162.942C102.892 162.854 102.838 162.841 102.784 162.83C102.058 162.14 101.328 161.447 100.511 160.927C100.23 160.747 99.9185 160.639 99.5215 160.908C99.4392 160.963 99.3539 161.035 99.2635 161.125C98.9489 161.45 98.6541 161.811 98.3997 162.264C98.3174 162.326 98.2615 162.424 98.2204 162.547C97.6051 163.552 96.9258 164.455 96.284 165.415C95.6886 166.205 95.1064 167.021 94.5403 167.866C94.2161 168.294 93.9044 168.737 93.6089 169.215C93.2561 169.69 92.9194 170.188 92.604 170.72C92.4753 170.899 92.3496 171.076 92.2548 171.293C91.8314 171.869 91.8181 172.386 91.8571 172.901C91.8351 173.284 91.8917 173.603 91.9277 173.941C91.9769 174.381 92.0254 174.823 92.1629 175.178C92.2011 175.482 92.2717 175.749 92.368 175.986C92.4011 176.064 92.4364 176.139 92.4717 176.213L92.5077 176.396C92.5393 176.483 92.5871 176.549 92.6371 176.609C92.6996 176.827 92.8135 176.961 92.9591 177.044C93.0649 177.22 93.2024 177.334 93.356 177.42C93.4472 177.47 93.5428 177.514 93.6398 177.554C93.7434 177.587 93.789 177.598 93.8331 177.614C93.9074 177.655 93.9846 177.69 94.0632 177.718L94.1794 177.753C94.2992 177.783 94.4278 177.794 94.5646 177.78C94.6146 177.821 94.6726 177.84 94.7491 177.808C94.9049 177.842 95.0601 177.877 95.2446 177.816C95.4085 177.862 95.593 177.837 95.7812 177.799C95.9554 177.81 96.1311 177.802 96.3215 177.746C96.4833 177.718 96.5619 177.712 96.645 177.7C96.8876 177.67 97.1383 177.604 97.3948 177.508L97.5088 177.484C97.6433 177.452 97.7117 177.439 97.7844 177.413L97.966 177.322C98.1733 177.242 98.2145 177.222 98.2542 177.204C98.521 177.102 98.7901 176.984 99.0592 176.834C99.1378 176.793 99.2143 176.747 99.2907 176.701L99.4605 176.59C99.6134 176.486 99.7678 176.371 99.9215 176.24C100.249 176.003 100.35 175.927 100.451 175.843C100.643 175.688 100.834 175.514 101.024 175.322C101.195 175.192 101.365 175.055 101.533 174.897L101.731 174.693L101.828 174.583C101.923 174.491 102.017 174.4 102.109 174.303C102.391 174.019 102.668 173.72 102.934 173.381C103.147 173.19 103.347 172.951 103.542 172.697C103.613 172.649 103.661 172.567 103.707 172.48C104.133 172.038 104.463 171.639 104.784 171.216C105.075 170.916 105.356 170.581 105.63 170.227C105.846 169.993 106.063 169.763 106.257 169.473C106.371 169.332 106.482 169.192 106.596 169.051C106.697 168.971 106.779 168.852 106.856 168.716L106.976 168.557C107.042 168.487 107.106 168.416 107.168 168.341C107.271 168.215 107.371 168.078 107.463 167.929C107.662 167.695 107.849 167.445 108.031 167.183C108.091 167.095 108.151 167.007 108.211 166.916C108.271 166.831 108.331 166.748 108.391 166.666C108.731 166.199 109.072 165.74 109.38 165.219C109.543 165.039 109.68 164.819 109.803 164.582C110.018 164.323 110.193 164.009 110.375 163.702C110.662 163.303 110.917 162.869 111.167 162.427C111.32 162.187 111.392 162.074 111.462 161.962C111.533 161.853 111.603 161.739 111.671 161.623C111.809 161.393 111.939 161.158 112.065 160.914C112.152 160.779 112.241 160.644 112.323 160.505C112.406 160.365 112.484 160.22 112.552 160.066C112.717 159.826 112.866 159.572 112.985 159.287C113.202 158.959 113.388 158.6 113.563 158.236C113.634 158.141 113.693 158.04 113.749 157.929L113.827 157.767L113.904 157.599C113.965 157.495 114.027 157.39 114.087 157.283C114.269 156.959 114.436 156.625 114.592 156.282C114.695 156.085 114.757 155.968 114.817 155.851C115.053 155.375 115.288 154.9 115.525 154.422C115.617 154.284 115.694 154.13 115.751 153.962C115.935 153.623 116.106 153.279 116.265 152.924C116.318 152.807 116.37 152.688 116.42 152.568C116.558 152.324 116.609 152.192 116.661 152.06C116.859 151.627 117.059 151.194 117.259 150.76C117.366 150.515 117.47 150.273 117.578 150.031C117.739 149.693 117.904 149.359 118.015 149.002C118.495 147.966 118.911 146.913 119.3 145.846C119.36 145.686 119.419 145.526 119.48 145.365C119.65 144.979 119.796 144.588 119.912 144.193C120.373 142.974 120.784 141.75 121.128 140.52C121.162 140.416 121.195 140.315 121.228 140.212C121.463 139.488 121.66 138.766 121.814 138.049C122.069 137.16 122.265 136.282 122.456 135.403C122.519 135.109 122.583 134.818 122.646 134.524C122.694 134.422 122.721 134.323 122.714 134.23L122.767 134.029C122.796 133.898 122.825 133.767 122.854 133.637C123.137 132.536 123.358 131.449 123.501 130.385L123.512 130.218C123.558 130.113 123.562 130.021 123.555 129.936L123.573 129.762C123.586 129.661 123.598 129.558 123.61 129.458C123.618 129.353 123.626 129.247 123.632 129.143C123.706 128.654 123.745 128.184 123.734 127.743C123.732 127.55 123.732 127.357 123.731 127.162C123.732 127.019 123.745 126.866 123.701 126.759C123.695 126.685 123.688 126.612 123.682 126.535C123.673 126.086 123.609 125.686 123.501 125.327C123.408 124.701 123.247 124.149 123.032 123.658C122.719 122.771 122.363 121.944 121.833 121.354C121.673 121.12 121.5 120.907 121.262 120.812L121.138 120.72C120.959 120.552 120.737 120.486 120.488 120.484C119.856 120.388 119.15 120.626 118.436 120.902C118.357 120.939 118.278 120.975 118.2 121.012C117.964 121.1 117.795 121.16 117.62 121.278L117.511 121.36C117.334 121.468 117.157 121.559 116.98 121.677" fill="white"/>
</g>
<defs>
<clipPath id="clip0">
<rect width="324" height="361" fill="white"/>
</clipPath>
</defs>
</svg>
